<?xml version="1.0" standalone="no"?>
<!DOCTYPE svg PUBLIC "-//W3C//DTD SVG 20010904//EN"
 "http://www.w3.org/TR/2001/REC-SVG-20010904/DTD/svg10.dtd">
<svg version="1.0" xmlns="http://www.w3.org/2000/svg"
 width="240.000000pt" height="251.000000pt" viewBox="0 0 240.000000 251.000000"
 preserveAspectRatio="xMidYMid meet">

<g transform="translate(0.000000,251.000000) scale(0.100000,-0.100000)"
fill="#000000" stroke="none">
<path d="M1205 2484 c-11 -3 -47 -9 -80 -15 -58 -11 -230 -65 -250 -80 -5 -3
-24 -10 -42 -14 -18 -3 -42 -14 -55 -24 -13 -9 -48 -30 -78 -45 -30 -16 -57
-32 -60 -36 -3 -4 -27 -21 -53 -38 -49 -31 -62 -42 -130 -109 -72 -71 -101
-104 -123 -141 -74 -123 -130 -287 -145 -421 -14 -124 -6 -459 11 -490 14 -27
45 -27 63 -1 15 22 27 17 27 -13 0 -19 5 -20 89 -13 l90 7 -11 -37 c-5 -21 -8
-55 -6 -77 l4 -39 -51 7 c-112 14 -125 18 -125 30 0 22 -41 65 -63 65 -64 0
-136 -169 -95 -222 21 -26 145 -74 278 -107 25 -7 54 -16 65 -21 11 -6 45 -18
75 -28 l55 -19 3 -56 c3 -66 24 -87 83 -87 20 0 64 -3 98 -6 73 -8 72 -4 41
-163 -11 -58 -18 -111 -16 -118 9 -21 46 -15 55 9 7 20 8 19 14 -10 7 -36 34
-53 48 -31 5 9 26 14 60 14 l51 0 4 48 c2 26 6 52 9 56 2 5 25 9 50 9 54 1 87
15 61 25 -9 4 -16 2 -16 -2 0 -11 -39 -2 -57 12 -9 6 -15 4 -19 -7 -3 -9 -10
-16 -15 -16 -5 0 -4 12 1 26 6 14 10 42 10 62 0 20 6 57 14 81 12 41 13 42 20
20 4 -13 8 -35 9 -49 2 -23 6 -25 42 -22 22 2 45 8 50 14 7 8 5 9 -7 5 -10 -3
-20 -2 -23 3 -4 6 3 10 14 10 11 0 23 5 26 10 4 6 10 8 15 5 13 -8 80 24 80
39 0 7 12 18 26 25 22 10 28 9 40 -6 17 -22 17 -24 -1 -47 -18 -24 -20 -40 -3
-30 7 4 8 3 4 -4 -4 -7 -16 -12 -27 -12 -24 0 -25 28 -1 46 14 11 13 12 -13 2
-47 -17 -70 -55 -69 -113 0 -49 8 -93 19 -103 3 -3 5 3 5 12 0 10 6 32 14 49
7 18 18 44 24 60 14 32 37 37 27 6 -5 -14 -3 -19 3 -15 11 7 21 -84 11 -111
-3 -8 -1 -37 5 -64 l10 -49 83 0 c47 0 83 4 83 10 0 5 14 16 30 25 36 19 39
35 6 35 -19 0 -26 7 -31 31 -4 18 -3 35 4 42 8 8 11 8 11 0 0 -6 8 -13 18 -15
12 -3 23 -22 31 -49 7 -24 19 -53 26 -63 12 -16 17 -17 30 -6 12 10 15 23 10
47 -5 28 -3 33 13 33 28 0 81 29 92 50 13 24 13 66 0 90 -8 16 -2 23 43 51 98
60 176 163 177 234 0 22 6 33 22 40 40 17 34 44 -22 96 -49 46 -123 88 -182
102 -33 9 -29 26 13 51 42 25 126 111 145 149 9 18 22 39 29 47 16 20 45 128
45 168 0 37 7 42 68 51 41 5 49 11 64 41 l17 35 1 -31 c0 -37 21 -58 49 -49
28 9 52 89 58 195 6 95 -15 225 -48 297 -10 23 -19 48 -19 55 -1 27 -57 135
-100 192 -36 48 -118 133 -173 181 -77 66 -198 136 -277 160 -14 4 -30 11 -36
16 -28 22 -202 49 -314 48 -63 -1 -124 -3 -135 -5z m474 -712 c19 -35 51 -219
58 -333 l8 -114 123 1 122 0 0 -31 c0 -55 -28 -126 -76 -197 -26 -37 -50 -68
-54 -68 -4 0 -27 -17 -51 -39 -101 -88 -399 -218 -638 -276 -174 -43 -405 -41
-502 3 -67 31 -118 87 -140 154 -10 33 -19 69 -19 80 0 30 41 182 54 197 13
16 11 177 -2 194 -5 7 -15 39 -21 72 -6 33 -13 71 -17 85 -4 22 2 29 53 60 32
20 87 49 123 64 36 16 80 35 98 44 48 22 51 7 3 -18 -24 -12 -46 -32 -51 -46
-13 -34 -13 -35 13 -30 79 16 85 16 80 -4 -5 -18 0 -20 39 -20 24 0 49 -5 56
-12 19 -19 36 5 27 39 -4 15 -7 41 -6 56 2 16 -5 37 -14 47 -15 17 -14 18 17
29 56 20 335 62 462 70 216 14 244 13 255 -7z m-1453 -859 c3 -16 7 -33 9 -39
2 -7 21 -12 42 -12 21 -1 70 -6 108 -11 39 -6 73 -11 76 -11 4 0 25 -28 47
-62 25 -38 55 -71 76 -82 20 -10 33 -22 31 -26 -4 -7 -240 51 -280 69 -11 5
-54 20 -95 32 l-75 24 3 35 c3 40 31 110 43 110 5 0 11 -12 15 -27z m1562 -84
c18 -10 41 -19 50 -19 9 0 39 -14 67 -32 48 -30 49 -31 27 -41 -16 -7 -26 -7
-30 -1 -4 6 -24 20 -45 33 l-38 23 6 -28 c4 -16 8 -34 10 -41 4 -11 -35 -27
-44 -18 -2 3 1 5 7 5 23 0 12 31 -23 65 -40 41 -61 44 -71 13 -3 -13 -14 -31
-22 -41 -13 -15 -14 -22 -4 -37 18 -30 15 -33 -24 -25 -46 8 -63 -12 -64 -77
0 -50 -15 -65 -26 -24 -4 19 -2 81 5 158 1 4 8 5 17 1 12 -4 15 -1 12 13 -2
10 -10 18 -16 17 -7 -2 -12 1 -12 7 0 6 6 10 14 10 7 0 37 13 67 29 64 34 92
36 137 10z m-27 -76 c-5 -10 -12 -26 -15 -35 -7 -22 -36 -24 -36 -3 0 8 4 15
9 15 5 0 13 9 16 20 3 11 13 20 21 20 10 0 12 -5 5 -17z m-347 -48 c-7 -17
-30 -20 -39 -6 -4 8 9 15 37 20 4 0 5 -6 2 -14z m-63 -38 c-8 -8 -11 -7 -11 4
0 20 13 34 18 19 3 -7 -1 -17 -7 -23z m-25 4 c-3 -5 1 -11 9 -15 8 -3 17 -1
20 4 4 6 15 10 27 10 19 0 20 -4 13 -47 -4 -27 -11 -53 -16 -59 -5 -6 -7 -19
-3 -28 8 -21 -5 -21 -23 2 -8 9 -12 11 -8 5 8 -17 -5 -16 -46 2 -28 12 -30 14
-11 15 27 0 28 10 2 33 -25 21 -34 21 -50 2 -9 -11 -10 -19 -3 -26 8 -8 0 -21
-25 -45 -41 -39 -45 -40 -67 -18 -13 13 -18 14 -31 3 -13 -11 -14 -7 -11 24 2
20 7 40 10 44 11 10 8 35 -3 28 -5 -3 -10 0 -10 8 0 18 27 30 35 17 11 -17 37
-11 42 9 4 15 19 22 57 29 69 13 98 14 92 3z m620 -17 c-3 -9 -6 -22 -6 -29 0
-8 -6 -20 -13 -27 -7 -7 -21 -27 -32 -45 -20 -31 -95 -95 -194 -163 -53 -37
-60 -54 -20 -56 42 -1 49 -4 49 -19 0 -20 -32 -35 -78 -35 -43 0 -57 11 -67
50 -5 20 2 35 31 68 20 24 47 48 60 52 30 12 54 58 61 121 3 27 10 49 15 49 4
0 27 9 51 19 49 23 70 28 116 30 26 1 32 -2 27 -15z m-1191 -25 c17 -5 46 -8
65 -7 70 4 112 -2 107 -14 -2 -7 -19 -13 -38 -13 -40 -1 -89 -34 -89 -61 -1
-18 -1 -18 -14 -1 -8 10 -16 14 -17 9 -2 -5 -19 -3 -39 4 -34 12 -34 13 -7 13
34 1 35 14 0 36 -19 13 -31 15 -43 7 -14 -8 -16 -6 -12 19 5 31 10 31 87 8z
m909 -15 c21 -8 22 -77 1 -94 -13 -11 -15 -8 -15 21 0 19 -3 44 -6 57 -7 24
-4 25 20 16z m-991 -49 c4 -8 2 -17 -3 -20 -6 -4 -10 3 -10 14 0 25 6 27 13 6z
m244 -27 c-3 -8 -6 -5 -6 6 -1 11 2 17 5 13 3 -3 4 -12 1 -19z m-58 -26 c12
-22 11 -23 -8 -12 -22 11 -26 22 -14 33 7 8 7 9 22 -21z m51 -18 c0 -20 -7
-17 -20 6 -9 16 -8 18 5 14 8 -4 15 -12 15 -20z m690 16 c0 -5 -7 -7 -15 -4
-8 4 -15 8 -15 10 0 2 7 4 15 4 8 0 15 -4 15 -10z m-449 -40 c10 0 19 -4 19
-10 0 -13 -27 -13 -35 0 -4 6 -10 8 -15 5 -4 -3 -5 5 -2 17 5 19 7 20 10 6 2
-10 12 -18 23 -18z m52 6 c6 -15 -1 -26 -15 -26 -4 0 -8 9 -8 20 0 23 15 27
23 6z m-308 -26 c3 -5 1 -10 -4 -10 -6 0 -11 5 -11 10 0 6 2 10 4 10 3 0 8 -4
11 -10z m661 -17 c-10 -10 -19 5 -10 18 6 11 8 11 12 0 2 -7 1 -15 -2 -18z
m-416 -8 c0 -8 -7 -15 -15 -15 -9 0 -12 6 -9 15 4 8 10 15 15 15 5 0 9 -7 9
-15z m-253 -62 c-3 -10 -5 -2 -5 17 0 19 2 27 5 18 2 -10 2 -26 0 -35z"/>
<path d="M1181 1697 c-6 -6 -11 -16 -11 -22 0 -7 -8 -19 -18 -29 -23 -20 -47
-89 -39 -110 10 -25 35 -30 65 -15 15 8 29 17 32 20 5 6 33 22 104 61 19 11
54 17 92 18 106 0 167 53 84 72 -61 14 -296 18 -309 5z"/>
<path d="M1304 1533 c-43 -3 -53 -8 -62 -28 -21 -46 36 -57 208 -41 99 10 108
13 89 30 -14 13 -150 48 -173 44 -6 -1 -34 -3 -62 -5z"/>
<path d="M832 1470 c-39 -9 -74 -38 -70 -58 4 -18 105 -27 128 -12 13 8 13 13
2 31 -18 28 -12 31 27 18 35 -12 47 -8 38 16 -7 16 -66 19 -125 5z"/>
<path d="M1363 1433 c-48 -5 -56 -18 -17 -27 34 -9 96 3 91 18 -4 13 -16 14
-74 9z"/>
<path d="M870 1374 c-14 -7 -35 -14 -47 -14 -13 0 -23 -4 -23 -10 0 -16 49
-12 81 7 47 28 37 44 -11 17z"/>
<path d="M1246 1255 c19 -20 34 -40 34 -45 0 -21 -50 -33 -140 -34 -75 -1
-101 -5 -123 -20 -15 -10 -42 -19 -60 -20 -41 -1 -42 -23 -1 -45 17 -9 46 -24
64 -34 31 -18 35 -18 86 -2 87 27 160 71 174 105 16 38 28 38 75 0 21 -16 43
-30 49 -30 6 0 17 -9 23 -19 10 -15 9 -22 -5 -35 -37 -32 -94 -45 -273 -61
-101 -9 -194 -21 -206 -27 -12 -6 -37 -8 -57 -4 -36 7 -47 -3 -23 -22 20 -16
114 -32 148 -25 17 3 33 12 36 19 6 16 35 18 49 5 5 -6 31 -3 69 10 33 11 98
24 144 28 90 9 133 31 139 70 2 11 10 21 18 21 17 0 36 44 28 65 -4 8 -18 18
-33 21 -78 18 -100 26 -122 45 -36 32 -97 69 -113 69 -9 0 -1 -14 20 -35z"/>
<path d="M855 1179 c-61 -83 -61 -149 0 -83 15 16 25 39 25 56 0 18 9 36 25
50 28 25 32 38 10 38 -8 0 -35 -27 -60 -61z"/>
<path d="M1232 922 c-43 -40 -104 -57 -200 -56 -63 1 -86 5 -101 18 -14 12
-21 14 -26 6 -4 -7 10 -28 33 -51 40 -38 44 -39 110 -39 72 0 80 4 148 70 12
11 30 20 41 20 22 0 73 36 73 51 0 20 -49 8 -78 -19z"/>
<path d="M1075 330 c3 -5 8 -10 11 -10 2 0 4 5 4 10 0 6 -5 10 -11 10 -5 0 -7
-4 -4 -10z"/>
<path d="M1115 310 c3 -5 8 -10 11 -10 2 0 4 5 4 10 0 6 -5 10 -11 10 -5 0 -7
-4 -4 -10z"/>
<path d="M1310 276 c0 -8 -6 -16 -12 -19 -7 -2 -10 -7 -6 -11 7 -8 48 23 48
36 0 5 -7 8 -15 8 -8 0 -15 -6 -15 -14z"/>
<path d="M1135 217 c-8 -19 -21 -40 -30 -47 -12 -10 -13 -15 -4 -21 8 -4 27 4
48 22 35 29 58 38 46 19 -3 -5 -1 -10 4 -10 6 0 11 -11 11 -25 0 -28 24 -34
34 -8 4 11 -3 26 -21 44 -15 15 -34 34 -41 43 -19 24 -32 20 -47 -17z"/>
<path d="M1260 198 c1 -13 7 -34 14 -47 13 -23 13 -23 18 -3 4 15 11 19 27 15
12 -3 21 -1 21 6 0 6 -6 11 -14 11 -7 0 -25 9 -40 21 l-26 20 0 -23z"/>
</g>
</svg>
